<?xml version="1.0" encoding="utf-8"?>
<!-- Generator: Adobe Illustrator 21.0.0, SVG Export Plug-In . SVG Version: 6.00 Build 0)  -->
<svg version="1.1" id="Layer_1" xmlns="http://www.w3.org/2000/svg" xmlns:xlink="http://www.w3.org/1999/xlink" x="0px" y="0px"
	 viewBox="0 0 452.4 683" style="enable-background:new 0 0 452.4 683;" xml:space="preserve">
<style type="text/css">
	.st0{fill:none;stroke:#FFF200;stroke-width:10;stroke-linecap:round;stroke-linejoin:round;stroke-miterlimit:10;}
	.st1{fill:none;stroke:#FFF200;stroke-width:5;stroke-linecap:round;stroke-linejoin:round;stroke-miterlimit:10;}
	.st2{fill:none;stroke:#FFFFFF;stroke-width:20;stroke-linecap:round;stroke-linejoin:round;stroke-miterlimit:10;}
	.st3{fill:#FFFFFF;}
	.st4{fill:none;stroke:#FFFFFF;stroke-width:20;stroke-miterlimit:10;}
</style>
<g id="Good">
	<path class="st0" d="M1441.5-793.8l-9.6,153.7c-267.8,280.3,32.7-713.5,26.4-247.9"/>
	<path class="st0" d="M1272.7-503.3c42.2,214.2,131.7,68.3,159.2-136.8"/>
	
		<ellipse transform="matrix(0.2011 -0.9796 0.9796 0.2011 1923.1743 882.4917)" class="st0" cx="1502.6" cy="-737.8" rx="85.8" ry="27.5"/>
	<path class="st0" d="M1604-757.9c-6.2,38.4-21.1,68-33.3,66c-12.2-2-17.2-34.8-11-73.2c6.2-38.4,21.1-68,33.3-66
		S1610.2-796.3,1604-757.9z"/>
	<path class="st0" d="M1715.7-741.5c-18.7,0-20-34.1-22.8-60.2"/>
	<path class="st0" d="M1488.8-786.7c33.3,82.5,126.9-16.6,215.1-99.5c-7.1,32.6-12.6,63-11.1,84.6c-86.1,170.7-69.4-6.9,11.1-84.6
		c13.9-25,29.1-68.3,39.2-133.7"/>
</g>
<g id="Friday">
	<path id="F1" class="st0" d="M1714.3-510.7c75-91.1,114.7-163.8,171.2-318.1c198.7-397.8-88.6-109.7-132.5,16.6
		c21.1-5.7,52.1-41.2,83.3-77.3"/>
	<path id="F2" class="st0" d="M1718.6-688.6c54.7-55,110.4-101.8,166.9-140.2c56.4-29,123.4-74.1,195.3-126.7"/>
	<path id="RI" class="st0" d="M1811.4-571.8c52.9-54.7,66.1-105.2,98.9-199.4c-28.3,95.2,5.2,67.5,31.5,20.6
		c-21.5,73.1-65.2,188.6,0,94.2c25.5-37.1,43.5-59.2,50.2-121.4c-1.9,64.7,25.9,34.3,48,7.9"/>
	<path id="I" class="st0" d="M2004-865.5c-3,17-6,34-9,51"/>
	<line id="I2" class="st0" x1="1972.6" y1="-688.6" x2="1982.4" y2="-729.1"/>
	<path id="D" class="st0" d="M2076-814.6l-8.2,64C1999.5-609.2,1995-739.6,2076-814.6c3.3-24.7,14.1-85.6,24.3-143.3"/>
	<path id="D2" class="st0" d="M2067.7-750.6c16.6,59.1,45-16.7,66.5-65.8"/>
	<path id="A" class="st0" d="M2174.1-807.5c-63.1,122.2-65.2-29.5,4.5-60.4L2174.1-807.5z"/>
	<path id="Y1" class="st0" d="M2226.3-904.7l-13.4,90.4c-12,27.5-24.5,42.5-38.8,6.8"/>
	<path id="Y2" class="st0" d="M2212.9-814.3c-0.3,48,36.7-4.8,66.5-58.5"/>
	<path id="Y3" class="st0" d="M2279.1-934.6c8.1,186.8-47.6,253.6-144.9,334.2"/>
</g>
<ellipse transform="matrix(0.3835 -0.9235 0.9235 0.3835 1984.5927 1902.7283)" class="st1" cx="2417.5" cy="-535.2" rx="31.6" ry="13.8"/>
<path class="st1" d="M2404.8-540.4c-9.4,19.8-21,36-35.6,47.3c-164.8,88.4-149.4-15.4,14.2-97.8c-113.2,93.1-170.4-8.1,11.1-86.3
	c99.5-44,79.4,11.1-11.1,52.5"/>
<path class="st1" d="M2471.8-525.2c32.5,3.7,26-16.3,11.6-41c-21.8,42.6-41.9,73.7-48.3,15.8"/>
<path class="st1" d="M2417.5-602.6c86.4-32.2,177.1-46.3,270.2-50.9"/>
<path class="st1" d="M2556.9-680.7c-84.3,160.5-7.5,196.4,28.2,99.5c-16.9-0.9-29.3,22.2-19.2,36c23.1,13,40.4-7.4,55.9-38.5
	c-3.6,20.3,4.4,20.7,14.4,17.4c-10.7,31.1,17.8,30.1,55.9,14.4"/>
<g>
	<path class="st2" d="M493.3-709.8c-14.9,31.7-39.7,52.7-55.3,47s-16.3-36.1-1.4-67.8s39.7-52.7,55.3-47S508.2-741.5,493.3-709.8z"
		/>
	<path class="st2" d="M436.6-730.6c-20.9,38.9-46.8,70.8-79.4,93C-10-463.7,24.2-667.9,388.7-830.1C136.5-646.9,9-846,413.5-999.8
		c221.7-86.6,177,21.8-24.7,103.4"/>
	<path class="st2" d="M585.9-700.7c72.4,7.2,58-32,25.8-80.7c-48.6,83.8-93.3,145.1-107.7,31.1"/>
	<path class="st2" d="M464.9-852.8c192.4-63.4,394.7-91.1,602-100.1"/>
	<path class="st2" d="M775.6-1006.5c-187.7,315.9-16.7,386.3,62.7,195.8c-37.7-1.7-65.2,43.7-42.8,70.9
		c51.4,25.5,90.1-14.5,124.7-75.7c-7.9,40,9.7,40.7,32.1,34.1c-23.9,61.2,39.7,59.3,124.7,28.3"/>
</g>
<g>
	<path class="st3" d="M102.1-476.8c2.4,4.1,6,6.1,10.9,6.1c3,0,5.5-0.7,7.2-2.1c1.8-1.4,2.6-3.4,2.6-5.9c0-2.2-0.5-4.1-1.5-5.8
		s-2.3-3.3-4-4.7c-1.7-1.4-3.9-3.1-6.6-4.9c-3.3-2.2-5.9-4.1-7.9-5.8c-1.9-1.6-3.5-3.5-4.8-5.7c-1.3-2.2-1.9-4.7-1.9-7.5
		c0-3.4,0.9-6.3,2.8-8.6c1.9-2.3,4.3-4.1,7.4-5.2c3.1-1.1,6.5-1.7,10.1-1.7c3.2,0,5.7,0.3,7.7,0.9s3.8,1.4,5.7,2.4
		c0.8,0.4,1.4,0.7,1.7,0.9c0.4,0.2,0.7,0.3,1.1,0.3c0.5,0,0.9-0.3,1.2-0.9c0.3-0.6,0.5-1.5,0.6-2.7h1.9c-0.3,3.9-0.4,10.6-0.4,20.1
		h-1.9c-0.2-3.1-0.9-6.1-2.1-9c-1.2-2.9-2.9-5.2-5-7s-4.5-2.7-7.2-2.7c-2.5,0-4.5,0.7-6.1,2c-1.6,1.3-2.3,3.2-2.3,5.6
		c0,2,0.5,3.7,1.4,5.1s2.2,2.8,3.8,4c1.6,1.3,4.7,3.5,9.3,6.7c3,2.1,5.4,4,7.2,5.6c1.8,1.6,3.3,3.5,4.4,5.6c1.1,2.1,1.7,4.6,1.7,7.4
		c0,3.6-1,6.6-3,9s-4.7,4.3-8.1,5.5s-7.1,1.8-11.3,1.8c-3.4,0-6.2-0.3-8.4-0.8c-2.2-0.5-4.3-1.3-6.2-2.2c-1.2-0.8-2.2-1.2-2.8-1.2
		c-0.5,0-0.9,0.3-1.2,0.8c-0.3,0.6-0.5,1.5-0.7,2.8h-1.9c0.2-4.2,0.4-12.1,0.4-23.8H98C98.4-486.2,99.7-480.9,102.1-476.8z"/>
	<path class="st3" d="M210.7-524.1c-0.8,0.8-1.4,2-1.6,3.7s-0.4,4.1-0.4,7.4v19.8c0,7.9-1.1,13.7-3.4,17.4c-3,5.1-8.9,7.7-17.6,7.7
		c-6.6,0-11.8-1.3-15.4-4c-1.8-1.3-3.2-2.9-4.2-4.9c-1-1.9-1.6-4.2-2-6.7c-0.4-2.5-0.5-5.6-0.5-9.3v-25.8c0-2.1-0.1-3.6-0.4-4.5
		s-0.8-1.6-1.6-1.9c-0.8-0.3-2-0.6-3.8-0.6v-1.6c3.1,0.2,7.9,0.2,14.4,0.2c6.4,0,11.4-0.1,14.7-0.2v1.6c-2,0.1-3.4,0.3-4.3,0.6
		c-0.9,0.3-1.5,1-1.8,1.9c-0.3,0.9-0.5,2.4-0.5,4.5v33.5c0,3.6,0.4,6.4,1.1,8.4c0.7,2.1,1.9,3.5,3.4,4.4c1.5,0.9,3.4,1.3,5.8,1.3
		c5.2,0,8.9-1.8,11.1-5.5c2.2-3.7,3.3-8.9,3.3-15.7v-19.1c0-4-0.2-6.9-0.5-8.7c-0.3-1.8-1-3.1-2.2-3.9c-1.1-0.8-3-1.5-5.7-1.8v-1.6
		c2.2,0.2,5.3,0.2,9.2,0.2c2.9,0,5.2-0.1,6.8-0.2v1.6C212.8-525.5,211.5-524.9,210.7-524.1z"/>
	<path class="st3" d="M286.3-524.1c-0.8,0.8-1.3,2-1.6,3.7s-0.4,4.1-0.4,7.4v43.7c-0.8-0.1-1.7-0.1-2.7-0.1c-1,0-2,0-3.1,0.1
		l-36.4-39.7v23.7c0,4,0.2,6.9,0.5,8.7s1,3.1,2.2,3.9c1.1,0.8,3,1.5,5.7,1.8v1.6c-2.2-0.2-5.3-0.2-9.2-0.2c-2.9,0-5.2,0.1-6.8,0.2
		v-1.6c1.7-0.4,3-1,3.8-1.8c0.8-0.8,1.4-2,1.6-3.7c0.3-1.6,0.4-4.1,0.4-7.4v-35c0-2.1-0.1-3.6-0.4-4.5c-0.3-0.9-0.8-1.6-1.6-1.9
		c-0.8-0.3-2.1-0.6-3.8-0.6v-1.6c1.7,0.2,3.9,0.2,6.8,0.2c3,0,5.5-0.1,7.6-0.2l33.6,35.5v-19.4c0-4-0.2-6.9-0.5-8.7s-1-3.1-2.1-3.9
		c-1.1-0.8-3-1.5-5.6-1.8v-1.6c2.2,0.2,5.3,0.2,9.2,0.2c2.9,0,5.2-0.1,6.8-0.2v1.6C288.3-525.5,287.1-524.9,286.3-524.1z"/>
	<path class="st3" d="M364.3-469.2c-2,0.7-4.3,1-6.9,1c-3.8,0-6.7-0.7-8.8-2c-2.1-1.3-3.4-3.6-3.9-6.9l-1.2-8.2
		c-0.6-3.9-1.3-6.8-2.2-8.7c-0.9-2-2.4-2.9-4.3-2.9h-3.7v18.9c0,2.1,0.1,3.6,0.4,4.5c0.3,0.9,0.8,1.6,1.6,1.9
		c0.8,0.3,2.1,0.6,3.8,0.6v1.6c-3.2-0.2-7.8-0.2-13.7-0.2c-6.6,0-11.5,0.1-14.6,0.2v-1.6c1.8-0.1,3-0.3,3.8-0.6
		c0.8-0.3,1.3-1,1.6-1.9s0.4-2.4,0.4-4.5v-40.7c0-2.1-0.1-3.6-0.4-4.5c-0.3-0.9-0.8-1.6-1.6-1.9c-0.8-0.3-2.1-0.6-3.8-0.6v-1.6
		c3.1,0.2,7.8,0.2,14.2,0.2c2.2,0,4.7,0,7.5-0.1c2.8-0.1,4.7-0.1,5.7-0.1c8.3,0,14.6,1.2,18.6,3.5c4.1,2.3,6.1,5.9,6.1,10.8
		c0,4.1-1.5,7.6-4.6,10.5c-3.1,2.9-8.2,4.7-15.5,5.4c5.6,0.3,9.8,1.3,12.7,3.1c2.9,1.7,4.6,4.3,5.3,7.6l1.7,8.5
		c0.4,2,0.9,3.4,1.4,4.2c0.5,0.8,1.3,1.2,2.3,1.2c1,0,1.8-0.4,2.5-1.1l1.1,1.1C368.1-471.1,366.3-469.9,364.3-469.2z M341.7-500.4
		c1.5-1.2,2.5-2.8,3-4.7c0.5-2,0.8-4.4,0.8-7.1c0-4.5-0.6-7.9-1.8-10.2c-1.2-2.3-3.2-3.4-6.1-3.4c-1.3,0-2.2,0.2-2.8,0.6
		c-0.6,0.4-1.1,1.1-1.3,2.1c-0.2,1-0.3,2.5-0.3,4.4v20.2h2.2C338.1-498.6,340.2-499.2,341.7-500.4z"/>
	<path class="st3" d="M410.9-525.3c-0.8,0.3-1.3,1-1.6,1.9s-0.4,2.4-0.4,4.5v40.7c0,2.1,0.1,3.6,0.4,4.5c0.3,0.9,0.8,1.6,1.6,1.9
		c0.8,0.3,2.1,0.6,3.8,0.6v1.6c-3.2-0.2-7.8-0.2-13.7-0.2c-6.6,0-11.5,0.1-14.6,0.2v-1.6c1.8-0.1,3-0.3,3.8-0.6
		c0.8-0.3,1.3-1,1.6-1.9s0.4-2.4,0.4-4.5v-40.7c0-2.1-0.1-3.6-0.4-4.5c-0.3-0.9-0.8-1.6-1.6-1.9c-0.8-0.3-2.1-0.6-3.8-0.6v-1.6
		c3.1,0.2,8,0.2,14.6,0.2c5.9,0,10.5-0.1,13.7-0.2v1.6C413-525.8,411.7-525.6,410.9-525.3z"/>
	<path class="st3" d="M443.7-476.8c2.4,4.1,6,6.1,10.9,6.1c3,0,5.5-0.7,7.2-2.1c1.8-1.4,2.6-3.4,2.6-5.9c0-2.2-0.5-4.1-1.5-5.8
		s-2.3-3.3-4-4.7c-1.7-1.4-3.9-3.1-6.6-4.9c-3.3-2.2-5.9-4.1-7.9-5.8c-1.9-1.6-3.5-3.5-4.8-5.7c-1.3-2.2-1.9-4.7-1.9-7.5
		c0-3.4,0.9-6.3,2.8-8.6c1.9-2.3,4.3-4.1,7.4-5.2c3.1-1.1,6.5-1.7,10.1-1.7c3.2,0,5.7,0.3,7.7,0.9s3.8,1.4,5.7,2.4
		c0.8,0.4,1.4,0.7,1.7,0.9c0.4,0.2,0.7,0.3,1.1,0.3c0.5,0,0.9-0.3,1.2-0.9c0.3-0.6,0.5-1.5,0.6-2.7h1.9c-0.3,3.9-0.4,10.6-0.4,20.1
		h-1.9c-0.2-3.1-0.9-6.1-2.1-9c-1.2-2.9-2.9-5.2-5-7s-4.5-2.7-7.2-2.7c-2.5,0-4.5,0.7-6.1,2c-1.6,1.3-2.3,3.2-2.3,5.6
		c0,2,0.5,3.7,1.4,5.1s2.2,2.8,3.8,4c1.6,1.3,4.7,3.5,9.3,6.7c3,2.1,5.4,4,7.2,5.6c1.8,1.6,3.3,3.5,4.4,5.6c1.1,2.1,1.7,4.6,1.7,7.4
		c0,3.6-1,6.6-3,9s-4.7,4.3-8.1,5.5s-7.1,1.8-11.3,1.8c-3.4,0-6.2-0.3-8.4-0.8c-2.2-0.5-4.3-1.3-6.2-2.2c-1.2-0.8-2.2-1.2-2.8-1.2
		c-0.5,0-0.9,0.3-1.2,0.8c-0.3,0.6-0.5,1.5-0.7,2.8h-1.9c0.2-4.2,0.4-12.1,0.4-23.8h1.9C440-486.2,441.4-480.9,443.7-476.8z"/>
	<path class="st3" d="M549.5-483.2c0,5.6,0.2,10.2,0.6,13.8c-3.7-0.2-10-0.2-18.8-0.2c-12.8,0-22.4,0.1-28.8,0.2v-1.6
		c1.8-0.1,3-0.3,3.8-0.6c0.8-0.3,1.3-1,1.6-1.9s0.4-2.4,0.4-4.5v-40.7c0-2.1-0.1-3.6-0.4-4.5c-0.3-0.9-0.8-1.6-1.6-1.9
		c-0.8-0.3-2.1-0.6-3.8-0.6v-1.6c6.4,0.2,15.9,0.2,28.8,0.2c8,0,13.8-0.1,17.2-0.2c-0.4,5.1-0.6,9.7-0.6,13.8c0,2.5,0.1,4.5,0.2,5.9
		h-1.9c-1-6.4-2.8-10.9-5.5-13.7c-2.7-2.8-5.9-4.2-9.6-4.2H530c-1.5,0-2.6,0.1-3.2,0.4c-0.7,0.2-1.1,0.7-1.4,1.4
		c-0.3,0.7-0.4,1.8-0.4,3.4v21h0.8c2,0,3.7-0.5,5.3-1.6c1.6-1.1,2.9-2.5,3.9-4.1c1-1.7,1.7-3.3,2-5.1h1.9c-0.2,3.2-0.3,5.9-0.3,8
		l0,3.7c0,2.4,0.2,6.2,0.5,11.7h-1.9c-0.3-2.1-1-3.9-2.1-5.6c-1-1.6-2.3-2.9-4-3.9c-1.6-0.9-3.4-1.4-5.4-1.4H525v21.4
		c0,1.6,0.1,2.7,0.4,3.4c0.3,0.7,0.7,1.2,1.4,1.4c0.7,0.2,1.8,0.4,3.2,0.4h2.7c2,0,4-0.6,6-1.9c2-1.3,3.8-3.3,5.5-6.2
		c1.6-2.9,2.9-6.7,3.7-11.3h1.9C549.6-488.8,549.5-486.3,549.5-483.2z"/>
	<path class="st3" d="M615.1-476.8c2.4,4.1,6,6.1,10.9,6.1c3,0,5.5-0.7,7.2-2.1c1.8-1.4,2.6-3.4,2.6-5.9c0-2.2-0.5-4.1-1.5-5.8
		s-2.3-3.3-4-4.7c-1.7-1.4-3.9-3.1-6.6-4.9c-3.3-2.2-5.9-4.1-7.9-5.8c-1.9-1.6-3.5-3.5-4.8-5.7c-1.3-2.2-1.9-4.7-1.9-7.5
		c0-3.4,0.9-6.3,2.8-8.6c1.9-2.3,4.3-4.1,7.4-5.2c3.1-1.1,6.5-1.7,10.1-1.7c3.2,0,5.7,0.3,7.7,0.9s3.8,1.4,5.7,2.4
		c0.8,0.4,1.4,0.7,1.7,0.9c0.4,0.2,0.7,0.3,1.1,0.3c0.5,0,0.9-0.3,1.2-0.9c0.3-0.6,0.5-1.5,0.6-2.7h1.9c-0.3,3.9-0.4,10.6-0.4,20.1
		h-1.9c-0.2-3.1-0.9-6.1-2.1-9c-1.2-2.9-2.9-5.2-5-7s-4.5-2.7-7.2-2.7c-2.5,0-4.5,0.7-6.1,2c-1.6,1.3-2.3,3.2-2.3,5.6
		c0,2,0.5,3.7,1.4,5.1s2.2,2.8,3.8,4c1.6,1.3,4.7,3.5,9.3,6.7c3,2.1,5.4,4,7.2,5.6c1.8,1.6,3.3,3.5,4.4,5.6c1.1,2.1,1.7,4.6,1.7,7.4
		c0,3.6-1,6.6-3,9s-4.7,4.3-8.1,5.5s-7.1,1.8-11.3,1.8c-3.4,0-6.2-0.3-8.4-0.8c-2.2-0.5-4.3-1.3-6.2-2.2c-1.2-0.8-2.2-1.2-2.8-1.2
		c-0.5,0-0.9,0.3-1.2,0.8c-0.3,0.6-0.5,1.5-0.7,2.8h-1.9c0.2-4.2,0.4-12.1,0.4-23.8h1.9C611.4-486.2,612.7-480.9,615.1-476.8z"/>
	<path class="st3" d="M720.8-483.2c0,5.6,0.2,10.2,0.6,13.8c-3.7-0.2-10-0.2-18.8-0.2c-12.8,0-22.4,0.1-28.8,0.2v-1.6
		c1.8-0.1,3-0.3,3.8-0.6c0.8-0.3,1.3-1,1.6-1.9s0.4-2.4,0.4-4.5v-40.7c0-2.1-0.1-3.6-0.4-4.5c-0.3-0.9-0.8-1.6-1.6-1.9
		c-0.8-0.3-2.1-0.6-3.8-0.6v-1.6c6.4,0.2,15.9,0.2,28.8,0.2c8,0,13.8-0.1,17.2-0.2c-0.4,5.1-0.6,9.7-0.6,13.8c0,2.5,0.1,4.5,0.2,5.9
		h-1.9c-1-6.4-2.8-10.9-5.5-13.7c-2.7-2.8-5.9-4.2-9.6-4.2h-1.1c-1.5,0-2.6,0.1-3.2,0.4c-0.7,0.2-1.1,0.7-1.4,1.4
		c-0.3,0.7-0.4,1.8-0.4,3.4v21h0.8c2,0,3.7-0.5,5.3-1.6c1.6-1.1,2.9-2.5,3.9-4.1c1-1.7,1.7-3.3,2-5.1h1.9c-0.2,3.2-0.3,5.9-0.3,8
		l0,3.7c0,2.4,0.2,6.2,0.5,11.7h-1.9c-0.3-2.1-1-3.9-2.1-5.6c-1-1.6-2.3-2.9-4-3.9c-1.6-0.9-3.4-1.4-5.4-1.4h-0.8v21.4
		c0,1.6,0.1,2.7,0.4,3.4c0.3,0.7,0.7,1.2,1.4,1.4c0.7,0.2,1.8,0.4,3.2,0.4h2.7c2,0,4-0.6,6-1.9c2-1.3,3.8-3.3,5.5-6.2
		c1.6-2.9,2.9-6.7,3.7-11.3h1.9C720.9-488.8,720.8-486.3,720.8-483.2z"/>
	<path class="st3" d="M797.2-469.2c-2,0.7-4.3,1-6.9,1c-3.8,0-6.7-0.7-8.8-2c-2.1-1.3-3.4-3.6-3.9-6.9l-1.2-8.2
		c-0.6-3.9-1.3-6.8-2.2-8.7c-0.9-2-2.4-2.9-4.3-2.9h-3.7v18.9c0,2.1,0.1,3.6,0.4,4.5c0.3,0.9,0.8,1.6,1.6,1.9
		c0.8,0.3,2.1,0.6,3.8,0.6v1.6c-3.2-0.2-7.8-0.2-13.7-0.2c-6.6,0-11.5,0.1-14.6,0.2v-1.6c1.8-0.1,3-0.3,3.8-0.6
		c0.8-0.3,1.3-1,1.6-1.9s0.4-2.4,0.4-4.5v-40.7c0-2.1-0.1-3.6-0.4-4.5c-0.3-0.9-0.8-1.6-1.6-1.9c-0.8-0.3-2.1-0.6-3.8-0.6v-1.6
		c3.1,0.2,7.8,0.2,14.2,0.2c2.2,0,4.7,0,7.5-0.1c2.8-0.1,4.7-0.1,5.7-0.1c8.3,0,14.6,1.2,18.6,3.5c4.1,2.3,6.1,5.9,6.1,10.8
		c0,4.1-1.5,7.6-4.6,10.5c-3.1,2.9-8.2,4.7-15.5,5.4c5.6,0.3,9.8,1.3,12.7,3.1c2.9,1.7,4.6,4.3,5.3,7.6l1.7,8.5
		c0.4,2,0.9,3.4,1.4,4.2c0.5,0.8,1.3,1.2,2.3,1.2c1,0,1.8-0.4,2.5-1.1l1.1,1.1C801-471.1,799.2-469.9,797.2-469.2z M774.6-500.4
		c1.5-1.2,2.5-2.8,3-4.7c0.5-2,0.8-4.4,0.8-7.1c0-4.5-0.6-7.9-1.8-10.2c-1.2-2.3-3.2-3.4-6.1-3.4c-1.3,0-2.2,0.2-2.8,0.6
		c-0.6,0.4-1.1,1.1-1.3,2.1c-0.2,1-0.3,2.5-0.3,4.4v20.2h2.2C771-498.6,773.1-499.2,774.6-500.4z"/>
	<path class="st3" d="M866.7-527.3c2.6,0,4.7-0.1,6.3-0.2v1.6c-1.5,0.7-2.9,2-4.4,3.9s-2.7,4.4-3.9,7.7l-16,45
		c-1.8-0.1-3.2-0.2-4.4-0.2c-1.1,0-2.5,0.1-4.3,0.2l-21.5-51.3c-0.7-1.8-1.5-3.1-2.4-3.9c-0.9-0.8-1.7-1.3-2.5-1.3v-1.6
		c4,0.2,9,0.2,15,0.2c6.2,0,10.8-0.1,13.8-0.2v1.6c-2,0.1-3.5,0.3-4.4,0.7c-0.9,0.4-1.4,1.2-1.4,2.3c0,0.9,0.3,2.2,1,3.9l14.2,35
		l7.9-22.4c1.8-5.1,2.7-9.2,2.7-12.2c0-4.7-2.2-7.2-6.7-7.3v-1.6C860-527.4,863.6-527.3,866.7-527.3z"/>
	<path class="st3" d="M915.2-525.3c-0.8,0.3-1.3,1-1.6,1.9s-0.4,2.4-0.4,4.5v40.7c0,2.1,0.1,3.6,0.4,4.5c0.3,0.9,0.8,1.6,1.6,1.9
		c0.8,0.3,2.1,0.6,3.8,0.6v1.6c-3.2-0.2-7.8-0.2-13.7-0.2c-6.6,0-11.5,0.1-14.6,0.2v-1.6c1.8-0.1,3-0.3,3.8-0.6
		c0.8-0.3,1.3-1,1.6-1.9s0.4-2.4,0.4-4.5v-40.7c0-2.1-0.1-3.6-0.4-4.5c-0.3-0.9-0.8-1.6-1.6-1.9c-0.8-0.3-2.1-0.6-3.8-0.6v-1.6
		c3.1,0.2,8,0.2,14.6,0.2c5.9,0,10.5-0.1,13.7-0.2v1.6C917.3-525.8,916-525.6,915.2-525.3z"/>
	<path class="st3" d="M989.3-473.1c-0.3-0.8-0.8-1.1-1.3-1.1c-0.4,0-1,0.2-1.7,0.7c-1.6,1.1-3.1,2.1-4.5,2.8
		c-1.4,0.7-2.9,1.3-4.7,1.8c-1.8,0.5-3.8,0.7-6,0.7c-6.2,0-11.6-1.2-16.3-3.5s-8.3-5.8-10.8-10.2c-2.6-4.5-3.9-9.8-3.9-16
		c0-6,1.3-11.4,4-16c2.6-4.7,6.3-8.3,11-10.8c4.7-2.6,10.1-3.9,16.1-3.9c3.3,0,6,0.5,8.4,1.4c2.3,0.9,4.6,2.2,6.8,3.9
		c0.6,0.5,1.1,0.7,1.6,0.7c1.1,0,1.8-1.6,2.1-4.9h1.9c-0.2,3.9-0.3,10.7-0.3,20.5h-1.9c-0.3-2.9-0.6-5.4-1.1-7.3
		c-0.5-2-1.2-3.7-2.3-5.3c-1-1.6-2.4-2.9-4.2-4.1c-2.5-1.6-5.1-2.4-7.6-2.4c-3.9,0-7,1.4-9.3,4.2c-2.3,2.8-3.9,6.2-4.8,10.4
		c-0.9,4.1-1.3,8.6-1.3,13.3c0,4.7,0.4,9.2,1.3,13.3c0.9,4.1,2.5,7.6,4.8,10.4s5.4,4.2,9.3,4.2c2.6,0,5.1-0.8,7.6-2.4
		c1.8-1.1,3.2-2.4,4.2-4.1c1-1.6,1.8-3.5,2.3-5.6c0.5-2.2,0.9-4.9,1.1-8.1h1.9c0,10.2,0.1,17.3,0.3,21.3h-1.9
		C989.8-471.1,989.6-472.3,989.3-473.1z"/>
	<path class="st3" d="M1061.7-483.2c0,5.6,0.2,10.2,0.6,13.8c-3.7-0.2-10-0.2-18.8-0.2c-12.8,0-22.4,0.1-28.8,0.2v-1.6
		c1.8-0.1,3-0.3,3.8-0.6c0.8-0.3,1.3-1,1.6-1.9s0.4-2.4,0.4-4.5v-40.7c0-2.1-0.1-3.6-0.4-4.5c-0.3-0.9-0.8-1.6-1.6-1.9
		c-0.8-0.3-2.1-0.6-3.8-0.6v-1.6c6.4,0.2,15.9,0.2,28.8,0.2c8,0,13.8-0.1,17.2-0.2c-0.4,5.1-0.6,9.7-0.6,13.8c0,2.5,0.1,4.5,0.2,5.9
		h-1.9c-1-6.4-2.8-10.9-5.5-13.7c-2.7-2.8-5.9-4.2-9.6-4.2h-1.1c-1.5,0-2.6,0.1-3.2,0.4c-0.7,0.2-1.1,0.7-1.4,1.4
		c-0.3,0.7-0.4,1.8-0.4,3.4v21h0.8c2,0,3.7-0.5,5.3-1.6c1.6-1.1,2.9-2.5,3.9-4.1c1-1.7,1.7-3.3,2-5.1h1.9c-0.2,3.2-0.3,5.9-0.3,8
		l0,3.7c0,2.4,0.2,6.2,0.5,11.7h-1.9c-0.3-2.1-1-3.9-2.1-5.6c-1-1.6-2.3-2.9-4-3.9c-1.6-0.9-3.4-1.4-5.4-1.4h-0.8v21.4
		c0,1.6,0.1,2.7,0.4,3.4c0.3,0.7,0.7,1.2,1.4,1.4c0.7,0.2,1.8,0.4,3.2,0.4h2.7c2,0,4-0.6,6-1.9c2-1.3,3.8-3.3,5.5-6.2
		c1.6-2.9,2.9-6.7,3.7-11.3h1.9C1061.8-488.8,1061.7-486.3,1061.7-483.2z"/>
</g>
<polygon class="st4" points="169.6,17.9 282.8,17.9 282.8,139.9 440.8,139.9 440.8,253.1 282.8,253.1 282.8,665 169.6,665 
	169.6,253.1 11.6,253.1 11.6,139.9 169.6,139.9 "/>
</svg>
